<?xml version="1.0" standalone="no"?>
<!DOCTYPE svg PUBLIC "-//W3C//DTD SVG 20010904//EN"
 "http://www.w3.org/TR/2001/REC-SVG-20010904/DTD/svg10.dtd">
<svg version="1.0" xmlns="http://www.w3.org/2000/svg"
 width="1376.000000pt" height="1376.000000pt" viewBox="0 0 1376.000000 1376.000000"
 preserveAspectRatio="xMidYMid meet">
<metadata>
Created by potrace 1.16, written by Peter Selinger 2001-2019
</metadata>
<g transform="translate(0.000000,1376.000000) scale(0.100000,-0.100000)"
fill="#000000" stroke="none">
<path d="M0 6880 l0 -6870 6875 0 6875 0 0 6870 0 6870 -6875 0 -6875 0 0
-6870z m7590 4055 c661 -110 1199 -505 1485 -1090 71 -145 105 -239 143 -395
25 -101 26 -117 28 -450 2 -377 10 -465 63 -666 94 -358 269 -678 531 -972
215 -242 605 -450 976 -522 60 -11 185 -27 278 -36 259 -22 443 -69 634 -159
571 -270 913 -780 1007 -1498 17 -137 20 -432 4 -557 -60 -487 -301 -958 -653
-1276 -185 -166 -459 -305 -750 -379 -198 -50 -284 -59 -523 -52 -346 10 -594
66 -872 198 -208 99 -327 182 -490 342 -189 186 -342 432 -430 692 -60 178
-78 276 -91 495 -18 310 -69 756 -110 955 -54 265 -160 483 -341 700 -167 200
-400 374 -674 504 -232 111 -348 146 -726 221 -267 53 -415 96 -573 168 -378
170 -742 477 -950 800 -113 175 -211 414 -256 627 -30 142 -38 427 -16 586 53
378 230 782 483 1102 273 345 753 610 1208 666 50 6 104 13 120 15 65 9 405
-4 495 -19z m-4326 -70 c727 -95 1345 -585 1600 -1268 85 -227 109 -401 99
-724 -9 -314 19 -511 108 -769 145 -421 431 -829 714 -1020 324 -219 629 -324
1030 -354 327 -25 594 -114 855 -287 156 -103 355 -302 459 -458 168 -252 275
-559 323 -925 18 -141 16 -461 -5 -595 -61 -385 -204 -712 -439 -1004 -105
-130 -270 -285 -367 -345 -395 -244 -793 -344 -1226 -307 -794 68 -1379 474
-1649 1145 -79 194 -110 352 -126 624 -17 300 -67 723 -110 930 -54 257 -169
486 -353 700 -160 187 -359 337 -613 465 -246 123 -387 167 -804 251 -421 84
-667 190 -967 415 -462 347 -731 784 -798 1295 -67 521 123 1117 508 1591 259
320 717 571 1167 639 130 19 448 20 594 1z m8426 -649 c474 -72 879 -422 1025
-886 60 -192 71 -468 26 -662 -113 -489 -497 -865 -996 -973 -111 -25 -322
-30 -443 -11 -233 36 -475 147 -645 295 -277 242 -428 557 -443 921 -10 231
35 432 142 640 154 298 418 522 739 629 179 59 398 76 595 47z"/>
</g>
</svg>
