<?xml version="1.0" standalone="no"?>
<!DOCTYPE svg PUBLIC "-//W3C//DTD SVG 20010904//EN"
 "http://www.w3.org/TR/2001/REC-SVG-20010904/DTD/svg10.dtd">
<svg version="1.0" xmlns="http://www.w3.org/2000/svg"
 width="613.000000pt" height="460.000000pt" viewBox="0 0 613.000000 460.000000"
 preserveAspectRatio="xMidYMid meet">
<metadata>
Created by potrace 1.16, written by Peter Selinger 2001-2019
</metadata>
<g transform="translate(0.000000,460.000000) scale(0.100000,-0.100000)"
fill="#000000" stroke="none">
<path d="M618 2933 c-157 -158 -180 -193 -180 -274 1 -90 73 -183 172 -220 54
-21 102 -28 311 -48 140 -13 211 -40 251 -94 29 -41 30 -45 25 -127 -3 -47 -9
-96 -13 -110 -7 -24 -7 -24 32 8 21 17 94 85 162 150 111 107 122 121 122 153
0 34 -20 56 -337 372 -297 298 -340 337 -367 337 -27 0 -52 -21 -178 -147z"/>
<path d="M4830 2681 c-52 -10 -56 -15 -91 -89 -18 -37 -90 -183 -161 -326 -70
-142 -128 -271 -128 -286 0 -45 27 -60 111 -60 41 0 80 4 88 9 8 5 28 35 45
67 l31 59 167 3 167 2 31 -59 c16 -33 39 -65 51 -72 13 -6 54 -10 101 -7 87 4
114 21 103 65 -12 48 -326 673 -343 682 -25 14 -130 21 -172 12z m117 -363
c18 -42 30 -83 27 -92 -5 -12 -21 -16 -69 -16 -72 0 -95 6 -95 25 0 16 49 134
63 153 20 26 42 5 74 -70z"/>
<path d="M1878 2665 c-80 -20 -128 -47 -171 -94 -79 -88 -69 -204 25 -273 44
-33 106 -53 265 -87 144 -30 186 -50 181 -84 -5 -37 -43 -48 -148 -44 -76 3
-111 10 -175 36 -44 17 -90 31 -102 31 -12 0 -41 -18 -63 -39 -35 -33 -41 -45
-38 -73 3 -29 10 -36 59 -61 139 -70 417 -88 557 -36 114 42 172 112 172 206
0 65 -26 112 -84 151 -55 37 -102 52 -270 87 -65 13 -129 31 -142 40 -31 20
-31 50 1 71 35 23 159 15 240 -16 101 -37 100 -37 151 13 38 39 45 51 42 79
-3 37 -34 56 -136 84 -82 22 -292 27 -364 9z"/>
<path d="M2597 2669 c-15 -6 -30 -21 -33 -33 -3 -13 -4 -128 -2 -257 3 -233 3
-234 31 -291 54 -110 159 -165 333 -175 94 -6 219 14 275 43 42 21 89 64 115
106 44 70 54 135 54 359 0 260 3 254 -125 254 -129 0 -125 8 -125 -267 0 -247
-4 -263 -70 -295 -49 -24 -136 -23 -179 2 -65 39 -71 63 -71 306 0 206 -1 217
-21 235 -24 22 -137 30 -182 13z"/>
<path d="M3553 2670 c-12 -5 -27 -18 -33 -29 -17 -32 -9 -686 8 -703 8 -8 45
-14 90 -16 66 -3 81 -1 102 16 24 19 25 25 22 104 -4 132 7 248 26 255 9 4 23
-3 35 -18 10 -13 44 -51 76 -84 31 -34 87 -97 126 -140 117 -135 117 -135 213
-135 119 0 112 -22 112 360 0 179 0 335 0 348 0 34 -59 56 -133 49 -94 -8 -96
-12 -99 -201 -3 -137 -5 -161 -19 -164 -10 -2 -75 63 -175 174 -87 97 -169
180 -182 185 -30 11 -140 11 -169 -1z"/>
<path d="M5590 2670 l-334 -5 -14 -25 c-15 -28 -10 -106 7 -123 7 -7 60 -14
129 -17 l117 -5 5 -272 c4 -204 8 -275 18 -285 9 -9 41 -13 96 -13 132 0 125
-16 128 304 l3 266 118 5 c134 6 137 7 137 86 0 57 -14 80 -50 85 -14 2 -176
2 -360 -1z"/>
<path d="M369 2521 c-20 -20 -91 -88 -158 -152 -104 -101 -121 -121 -121 -148
0 -28 37 -68 334 -366 322 -323 336 -335 373 -335 36 0 45 7 186 152 130 135
150 159 163 206 14 47 14 57 0 105 -41 141 -155 196 -439 216 -190 13 -261 42
-303 123 -16 31 -18 124 -3 187 5 24 8 45 7 46 -2 1 -19 -14 -39 -34z"/>
</g>
</svg>
